<?xml version="1.0" encoding="UTF-8"?>
<svg version="1.1" xmlns="http://www.w3.org/2000/svg" width="64" height="64">
<path d="M0 0 C7.63848431 4.57202032 12.54582035 10.97599805 15.2734375 19.3984375 C16.99791225 28.45192992 16.5925302 37.7036303 11.6953125 45.61328125 C11.3446875 46.23589844 10.9940625 46.85851563 10.6328125 47.5 C6.34923512 54.35669851 -0.59577403 58.55192344 -8.3046875 60.61328125 C-19.34700961 61.60662822 -28.16610976 60.74501627 -37.5546875 54.42578125 C-45.62116863 46.175971 -48.72959583 38.11983518 -48.66821289 26.65820312 C-48.43631979 17.67930241 -45.25867063 11.88233806 -39.23046875 5.40234375 C-28.23496904 -4.81254239 -13.47532919 -6.37832248 0 0 Z " fill="#76B2D3" transform="translate(48.3046875,3.38671875)"/>
<path d="M0 0 C3.09244792 0.03255208 6.18489583 0.06510417 9.27734375 0.09765625 C9.27734375 6.03765625 9.27734375 11.97765625 9.27734375 18.09765625 C5.31734375 18.09765625 1.35734375 18.09765625 -2.72265625 18.09765625 C-2.72265625 19.08765625 -2.72265625 20.07765625 -2.72265625 21.09765625 C1.23734375 21.09765625 5.19734375 21.09765625 9.27734375 21.09765625 C9.27734375 22.41765625 9.27734375 23.73765625 9.27734375 25.09765625 C13.56734375 25.09765625 17.85734375 25.09765625 22.27734375 25.09765625 C22.77234375 27.07765625 22.77234375 27.07765625 23.27734375 29.09765625 C10.40734375 29.09765625 -2.46265625 29.09765625 -15.72265625 29.09765625 C-15.72265625 27.77765625 -15.72265625 26.45765625 -15.72265625 25.09765625 C-14.73265625 25.09765625 -13.74265625 25.09765625 -12.72265625 25.09765625 C-12.73312988 24.44168457 -12.74360352 23.78571289 -12.75439453 23.10986328 C-12.79588128 20.14749967 -12.82195887 17.18519709 -12.84765625 14.22265625 C-12.87279297 12.67384766 -12.87279297 12.67384766 -12.8984375 11.09375 C-12.90488281 10.10761719 -12.91132813 9.12148438 -12.91796875 8.10546875 C-12.92844238 7.1942627 -12.93891602 6.28305664 -12.94970703 5.34423828 C-12.72265625 3.09765625 -12.72265625 3.09765625 -10.72265625 1.09765625 C-8.38968192 1.05672688 -6.055604 1.05523902 -3.72265625 1.09765625 C-2.72265625 0.09765625 -2.72265625 0.09765625 0 0 Z " fill="#C35A5A" transform="translate(28.72265625,18.90234375)"/>
<path d="M0 0 C0.721875 0.00257812 1.44375 0.00515625 2.1875 0.0078125 C2.909375 0.00523438 3.63125 0.00265625 4.375 0 C6.1875 0.1328125 6.1875 0.1328125 7.1875 1.1328125 C7.27508003 3.13246232 7.29446576 5.1351736 7.28515625 7.13671875 C7.28193359 8.35166016 7.27871094 9.56660156 7.27539062 10.81835938 C7.26701172 12.09775391 7.25863281 13.37714844 7.25 14.6953125 C7.24548828 15.97857422 7.24097656 17.26183594 7.23632812 18.58398438 C7.22449545 21.76697272 7.20801068 24.94987012 7.1875 28.1328125 C3.8875 28.1328125 0.5875 28.1328125 -2.8125 28.1328125 C-2.8125 26.8128125 -2.8125 25.4928125 -2.8125 24.1328125 C-6.7725 24.1328125 -10.7325 24.1328125 -14.8125 24.1328125 C-14.8125 23.1428125 -14.8125 22.1528125 -14.8125 21.1328125 C-10.8525 21.1328125 -6.8925 21.1328125 -2.8125 21.1328125 C-2.82990234 18.98458984 -2.82990234 18.98458984 -2.84765625 16.79296875 C-2.85703255 14.92708463 -2.86613292 13.06119911 -2.875 11.1953125 C-2.88337891 10.24978516 -2.89175781 9.30425781 -2.90039062 8.33007812 C-2.90361328 7.43095703 -2.90683594 6.53183594 -2.91015625 5.60546875 C-2.91539307 4.77281494 -2.92062988 3.94016113 -2.92602539 3.08227539 C-2.77717429 0.52619786 -2.55685869 0.18735603 0 0 Z " fill="#DADBCD" transform="translate(40.8125,15.8671875)"/>
<path d="M0 0 C3.96 0 7.92 0 12 0 C12 5.94 12 11.88 12 18 C8.04 18 4.08 18 0 18 C0 12.06 0 6.12 0 0 Z " fill="#4F5D73" transform="translate(26,19)"/>
<path d="M0 0 C12.54 0 25.08 0 38 0 C38.495 1.98 38.495 1.98 39 4 C26.13 4 13.26 4 0 4 C0 2.68 0 1.36 0 0 Z " fill="#DE9960" transform="translate(13,44)"/>
<path d="M0 0 C1.670625 0.061875 1.670625 0.061875 3.375 0.125 C3.705 2.435 4.035 4.745 4.375 7.125 C1.075 7.125 -2.225 7.125 -5.625 7.125 C-5.625 0.19396552 -5.625 0.19396552 0 0 Z " fill="#C15E60" transform="translate(21.625,19.875)"/>
<path d="M0 0 C3.96 0 7.92 0 12 0 C12 1.32 12 2.64 12 4 C8.04 4 4.08 4 0 4 C0 2.68 0 1.36 0 0 Z " fill="#4F5D73" transform="translate(26,40)"/>
<path d="M0 0 C2.97 0 5.94 0 9 0 C9.33 1.32 9.66 2.64 10 4 C6.04 4 2.08 4 -2 4 C-1.34 2.68 -0.68 1.36 0 0 Z " fill="#506076" transform="translate(28,12)"/>
<path d="M0 0 C3.3 0 6.6 0 10 0 C10 1.32 10 2.64 10 4 C6.7 4 3.4 4 0 4 C0 2.68 0 1.36 0 0 Z " fill="#C35A5A" transform="translate(16,40)"/>
<path d="M0 0 C3.96 0 7.92 0 12 0 C12 0.99 12 1.98 12 3 C8.04 3 4.08 3 0 3 C0 2.01 0 1.02 0 0 Z " fill="#76C2AF" transform="translate(26,37)"/>
<path d="M0 0 C3.96 0 7.92 0 12 0 C12 0.99 12 1.98 12 3 C8.04 3 4.08 3 0 3 C0 2.01 0 1.02 0 0 Z " fill="#76C2AF" transform="translate(26,16)"/>
<path d="M0 0 C3.3 0 6.6 0 10 0 C10 0.99 10 1.98 10 3 C6.7 3 3.4 3 0 3 C0 2.01 0 1.02 0 0 Z " fill="#FAFAFA" transform="translate(38,37)"/>
<path d="M0 0 C3.3 0 6.6 0 10 0 C10 0.99 10 1.98 10 3 C6.7 3 3.4 3 0 3 C0 2.01 0 1.02 0 0 Z " fill="#DB965C" transform="translate(16,37)"/>
<path d="M0 0 C3.3 0 6.6 0 10 0 C10 0.99 10 1.98 10 3 C6.7 3 3.4 3 0 3 C0 2.01 0 1.02 0 0 Z " fill="#DB965C" transform="translate(16,24)"/>
<path d="M0 0 C3.3 0 6.6 0 10 0 C10 0.99 10 1.98 10 3 C6.7 3 3.4 3 0 3 C0 2.01 0 1.02 0 0 Z " fill="#FAFAFA" transform="translate(38,20)"/>
</svg>
